<?xml version="1.0" encoding="iso-8859-1"?>
<!-- Generator: Adobe Illustrator 19.0.1, SVG Export Plug-In . SVG Version: 6.00 Build 0)  -->
<svg version="1.1" xmlns="http://www.w3.org/2000/svg" xmlns:xlink="http://www.w3.org/1999/xlink" x="0px" y="0px"
	 viewBox="0 0 128 128" style="enable-background:new 0 0 128 128;" xml:space="preserve">
<g id="_x35_">
	<path style="fill:#E1DEFD;" d="M107.109,14.192v105.187H19.166v-1.724h86.219V14.192H107.109z M110.558,17.64v105.187H22.615v1.724
		h89.667V17.64H110.558z"/>
	<path style="fill:#675BF5;" d="M110.558,14.192v-3.449h-5.173V7.294h-8.587C95.815,3.121,92.056,0,87.572,0
		c-4.466,0-8.225,3.121-9.225,7.294H12.269v110.36h3.449v5.173h3.449V128h96.565V14.192H110.558z M105.385,14.192h1.724v105.187
		H19.166v-1.724h86.219V14.192z M87.572,3.449c2.552,0,4.742,1.604,5.621,3.845H81.951C82.83,5.052,85.02,3.449,87.572,3.449z
		 M15.718,10.743h77.89v21.486c0,1.707-1.397,3.104-3.104,3.104c-1.724,0-3.121-1.397-3.121-3.104V16.64h-3.449v15.588
		c0,3.621,2.949,6.553,6.57,6.553c3.621,0,6.553-2.931,6.553-6.553V10.743h4.88v103.462H15.718V10.743z M112.282,124.551H22.615
		v-1.724h87.943V17.64h1.724V124.551z M65.725,30.571H25.491v-1.724h40.235V30.571z M65.725,35.744H25.491v1.724h40.235V35.744z
		 M65.725,42.641H25.491v1.724h40.235V42.641z M65.725,49.539H25.491v1.724h40.235V49.539z M56.241,101.27H25.491v1.724h30.751
		V101.27z M93.613,94.372H25.491v1.724h68.123V94.372z M93.613,87.475H25.491v1.724h68.123V87.475z M93.613,80.577H25.491v1.724
		h68.123V80.577z M93.613,73.68H25.491v1.724h68.123V73.68z M93.613,66.782H25.491v1.724h68.123V66.782z M93.613,59.885H25.491
		v1.724h68.123V59.885z"/>
</g>
<g id="Layer_1">
</g>
</svg>
